#!OML:ASF H:\BabyWalks\Project 1\Capture day 1\Session 1\baby.ASF
:FULLY-SPECIFIED
:DEGREES
849
root 42.006 17.273 0.692029 -41.1477 78.4543 -44.2087
lowerback 19.9894 1.1547 -0.242533
upperback 7.72547 1.87301 -1.22595
thorax -2.79416 1.13505 -1.5817
lowerneck 1.8489 2.9374 6.29132
upperneck -10.7122 4.54352 0.489615
head -3.68115 2.06882 -1.1063
rclavicle 0 -2.54444e-014
rhumerus -44.8106 7.22465 -85.5388
rradius 54.101
rwrist 6.86227
rhand -8.30691 -14.7166
rfingers 7.12502
rthumb 17.6135 -43.9388
lclavicle 0 -2.54444e-014
lhumerus -37.7053 -2.89247 69.6873
lradius 67.3455
lwrist 2.32971
lhand -7.59409 5.33516
lfingers 7.12502
lthumb 18.2994 34.4944
rfemur -1.32794 16.9819 26.6933
rtibia 21.1349
rfoot -20.9294 4.87426
rtoes -0.673928
lfemur -26.5696 0.0249902 -5.67608
ltibia 39.8847
lfoot -18.6416 -8.25725
ltoes -8.42255
850
root 42.0347 17.2821 0.681086 -41.0708 78.3722 -44.3091
lowerback 19.9642 1.15315 -0.261442
upperback 7.72504 1.86595 -1.24792
thorax -2.78168 1.13123 -1.59194
lowerneck 1.90853 2.9222 6.16455
upperneck -10.8429 4.54188 0.621556
head -3.74437 2.06493 -1.04467
rclavicle -1.59028e-014 -6.36111e-015
rhumerus -44.7055 6.7822 -84.9879
rradius 53.325
rwrist 6.7184
rhand -7.75363 -15.1541
rfingers 7.12502
rthumb 18.1459 -44.3277
lclavicle -1.59028e-014 -6.36111e-015
lhumerus -37.4981 -3.08503 69.6376
lradius 67.8664
lwrist 2.41718
lhand -7.77393 5.28803
lfingers 7.12502
lthumb 18.1264 34.4634
rfemur -1.20981 16.9661 26.6813
rtibia 20.6528
rfoot -20.7352 4.95915
rtoes -0.514421
lfemur -26.6314 0.0381223 -5.6498
ltibia 39.8773
lfoot -18.705 -8.15422
ltoes -8.42135
851
root 42.0627 17.2914 0.669572 -40.8841 78.2956 -44.3048
lowerback 19.9152 1.15388 -0.275545
upperback 7.72639 1.86265 -1.27393
thorax -2.75471 1.12939 -1.60917
lowerneck 1.96647 2.89957 6.05288
upperneck -10.9716 4.52802 0.728278
head -3.80627 2.05532 -0.99341
rclavicle 2.22639e-014 2.70347e-014
rhumerus -44.6068 6.32645 -84.4322
rradius 52.6248
rwrist 6.56696
rhand -7.29402 -15.5667
rfingers 7.12502
rthumb 18.588 -44.6987
lclavicle 2.22639e-014 2.70347e-014
lhumerus -37.3213 -3.34019 69.6204
lradius 68.335
lwrist 2.48472
lhand -7.93106 5.22729
lfingers 7.12502
lthumb 17.9752 34.4166
rfemur -1.11293 16.9264 26.6355
rtibia 20.1836
rfoot -20.5437 5.09086
rtoes -0.364357
lfemur -26.6965 0.0783967 -5.64994
ltibia 39.8628
lfoot -18.762 -8.06251
ltoes -8.41736
852
root 42.0898 17.3003 0.657745 -40.5922 78.2336 -44.2023
lowerback 19.8497 1.15598 -0.291417
upperback 7.72434 1.86031 -1.30466
thorax -2.72282 1.12791 -1.63014
lowerneck 2.0258 2.87021 5.95899
upperneck -11.0981 4.50273 0.806254
head -3.86717 2.0404 -0.954229
rclavicle 3.18055e-015 -7.95139e-015
rhumerus -44.5237 5.86523 -83.8776
rradius 52.0017
rwrist 6.42108
rhand -6.93636 -15.9402
rfingers 7.12502
rthumb 18.932 -45.0389
lclavicle 3.18055e-015 -7.95139e-015
lhumerus -37.1784 -3.64631 69.6311
lradius 68.7549
lwrist 2.55345
lhand -8.04923 5.15963
lfingers 7.12502
lthumb 17.8615 34.3594
rfemur -1.03975 16.8635 26.5509
rtibia 19.7338
rfoot -20.3606 5.2626
rtoes -0.23751
lfemur -26.7727 0.143179 -5.68222
ltibia 39.8443
lfoot -18.8129 -7.98857
ltoes -8.41173
853
root 42.1157 17.3086 0.645936 -40.2237 78.1884 -44.0253
lowerback 19.775 1.15813 -0.310041
upperback 7.72103 1.85733 -1.33972
thorax -2.6875 1.12608 -1.65372
lowerneck 2.10352 2.8506 5.85486
upperneck -11.225 4.49096 0.882868
head -3.93169 2.03242 -0.91453
rclavicle -7.95139e-015 4.77083e-014
rhumerus -44.4546 5.40825 -83.3326
rradius 51.4541
rwrist 6.28496
rhand -6.68126 -16.2634
rfingers 7.12502
rthumb 19.1774 -45.3379
lclavicle -7.95139e-015 4.77083e-014
lhumerus -37.0653 -3.98966 69.6628
lradius 69.1267
lwrist 2.62819
lhand -8.11795 5.08589
lfingers 7.12502
lthumb 17.7953 34.2917
rfemur -0.985706 16.7847 26.4348
rtibia 19.3061
rfoot -20.1879 5.4616
rtoes -0.125671
lfemur -26.86 0.228056 -5.74277
ltibia 39.8281
lfoot -18.8596 -7.93612
ltoes -8.39894
854
root 42.1403 17.3163 0.634331 -39.7868 78.1626 -43.7762
lowerback 19.7 1.15997 -0.337332
upperback 7.7157 1.8522 -1.37815
thorax -2.65435 1.12306 -1.67554
lowerneck 2.16944 2.82494 5.76634
upperneck -11.3357 4.4681 0.942041
head -3.98787 2.0194 -0.88224
rclavicle 2.54444e-014 0
rhumerus -44.405 4.97016 -82.804
rradius 50.9845
rwrist 6.15665
rhand -6.52996 -16.5418
rfingers 7.12502
rthumb 19.3228 -45.6018
lclavicle 2.54444e-014 0
lhumerus -36.9846 -4.35925 69.7135
lradius 69.446
lwrist 2.72627
lhand -8.1436 5.00216
lfingers 7.12502
lthumb 17.7707 34.2102
rfemur -0.942404 16.6947 26.2893
rtibia 18.8989
rfoot -20.0253 5.67911
rtoes -0.0301725
lfemur -26.9557 0.325871 -5.83155
ltibia 39.8198
lfoot -18.9049 -7.9051
ltoes -8.36981
855
root 42.163 17.3227 0.623322 -39.3511 78.1429 -43.5229
lowerback 19.6353 1.1597 -0.364642
upperback 7.70655 1.84423 -1.41272
thorax -2.63075 1.11846 -1.69307
lowerneck 2.24462 2.81372 5.66923
upperneck -11.4368 4.46411 1.00112
head -4.0422 2.01618 -0.84914
rclavicle -5.56597e-015 0
rhumerus -44.3692 4.56172 -82.2966
rradius 50.5854
rwrist 6.04319
rhand -6.46612 -16.773
rfingers 7.12502
rthumb 19.3842 -45.8268
lclavicle -5.56597e-015 0
lhumerus -36.9383 -4.73457 69.7806
lradius 69.7111
lwrist 2.8483
lhand -8.13055 4.89976
lfingers 7.12502
lthumb 17.7832 34.1066
rfemur -0.903934 16.6177 26.1399
rtibia 18.5098
rfoot -19.8677 5.9005
rtoes 0.106291
lfemur -27.0627 0.437809 -5.92428
ltibia 39.8266
lfoot -18.9521 -7.898
ltoes -8.33186
856
root 42.1844 17.3274 0.612851 -38.904 78.1331 -43.2442
lowerback 19.5833 1.15762 -0.397293
upperback 7.69764 1.83317 -1.44498
thorax -2.61373 1.11229 -1.70488
lowerneck 2.30541 2.80293 5.58145
upperneck -11.5184 4.45758 1.04727
head -4.08639 2.01234 -0.82112
rclavicle 5.56597e-015 1.59028e-014
rhumerus -44.3464 4.19456 -81.8168
rradius 50.2557
rwrist 5.93684
rhand -6.49254 -16.9611
rfingers 7.12502
rthumb 19.3588 -46.0175
lclavicle 5.56597e-015 1.59028e-014
lhumerus -36.9247 -5.10759 69.8623
lradius 69.9217
lwrist 2.99129
lhand -8.08362 4.78918
lfingers 7.12502
lthumb 17.8284 33.9919
rfemur -0.84784 16.5774 25.9802
rtibia 18.1338
rfoot -19.7167 6.13379
rtoes 0.424971
lfemur -27.1729 0.555072 -6.02766
ltibia 39.8536
lfoot -19.0061 -7.90745
ltoes -8.28741
857
root 42.2041 17.3304 0.603329 -38.504 78.1185 -42.9975
lowerback 19.5484 1.15456 -0.425698
upperback 7.68915 1.82199 -1.46871
thorax -2.60514 1.10604 -1.7106
lowerneck 2.36075 2.79349 5.49315
upperneck -11.589 4.45164 1.09287
head -4.12556 2.00909 -0.792841
rclavicle -3.49861e-014 1.27222e-014
rhumerus -44.3324 3.876 -81.3685
rradius 49.9888
rwrist 5.83984
rhand -6.60344 -17.1064
rfingers 7.12502
rthumb 19.2522 -46.1734
lclavicle -3.49861e-014 1.27222e-014
lhumerus -36.9398 -5.46764 69.9566
lradius 70.0724
lwrist 3.1485
lhand -8.00096 4.67803
lfingers 7.12502
lthumb 17.9079 33.8735
rfemur -0.773347 16.5802 25.8369
rtibia 17.7639
rfoot -19.5658 6.35443
rtoes 0.865473
lfemur -27.2857 0.679384 -6.11747
ltibia 39.9043
lfoot -19.0681 -7.93314
ltoes -8.22955
858
root 42.2221 17.3319 0.594769 -38.1658 78.1031 -42.7975
lowerback 19.5303 1.14946 -0.45042
upperback 7.68263 1.80935 -1.48305
thorax -2.60338 1.09911 -1.70866
lowerneck 2.40603 2.78891 5.40183
upperneck -11.6448 4.45055 1.13874
head -4.15745 2.00875 -0.763612
rclavicle 1.90833e-014 3.18055e-015
rhumerus -44.3259 3.60328 -80.9513
rradius 49.7875
rwrist 5.75152
rhand -6.7815 -17.2184
rfingers 7.12502
rthumb 19.081 -46.3024
lclavicle 1.90833e-014 3.18055e-015
lhumerus -36.9775 -5.80769 70.0643
lradius 70.1615
lwrist 3.31156
lhand -7.88675 4.58005
lfingers 7.12502
lthumb 18.0178 33.7655
rfemur -0.679527 16.6233 25.7109
rtibia 17.3986
rfoot -19.4152 6.55447
rtoes 1.41476
lfemur -27.4016 0.804179 -6.19415
ltibia 39.9763
lfoot -19.1373 -7.97243
ltoes -8.16732
859
root 42.2389 17.3322 0.587052 -37.8827 78.0766 -42.6307
lowerback 19.5325 1.14468 -0.470782
upperback 7.67922 1.79856 -1.48642
thorax -2.60887 1.09315 -1.69854
lowerneck 2.44249 2.77529 5.31511
upperneck -11.697 4.43558 1.17596
head -4.18637 2.00182 -0.737211
rclavicle 5.56597e-015 -1.74931e-014
rhumerus -44.3249 3.38782 -80.5694
rradius 49.6469
rwrist 5.65929
rhand -7.0197 -17.3099
rfingers 7.12502
rthumb 18.8519 -46.4164
lclavicle 5.56597e-015 -1.74931e-014
lhumerus -37.0388 -6.11626 70.1832
lradius 70.1893
lwrist 3.45473
lhand -7.74231 4.50126
lfingers 7.12502
lthumb 18.1568 33.6738
rfemur -0.564516 16.707 25.6099
rtibia 17.0452
rfoot -19.2696 6.72932
rtoes 2.0356
lfemur -27.5054 0.929278 -6.2525
ltibia 40.0642
lfoot -19.2123 -8.01627
ltoes -8.09985
860
root 42.2547 17.3317 0.579985 -37.6384 78.0499 -42.4876
lowerback 19.5401 1.13928 -0.488205
upperback 7.68339 1.78842 -1.48237
thorax -2.6092 1.08775 -1.68239
lowerneck 2.48035 2.77086 5.20964
upperneck -11.7538 4.43441 1.2314
head -4.21777 2.00173 -0.702092
rclavicle -4.77083e-015 -4.77083e-015
rhumerus -44.3208 3.21878 -80.2205
rradius 49.5675
rwrist 5.564
rhand -7.30489 -17.384
rfingers 7.12502
rthumb 18.5776 -46.5169
lclavicle -4.77083e-015 -4.77083e-015
lhumerus -37.1084 -6.39153 70.3123
lradius 70.1551
lwrist 3.56471
lhand -7.57027 4.44682
lfingers 7.12502
lthumb 18.3223 33.6039
rfemur -0.442301 16.8102 25.5234
rtibia 16.7121
rfoot -19.1368 6.87421
rtoes 2.65503
lfemur -27.6011 1.04745 -6.30371
ltibia 40.16
lfoot -19.2901 -8.06127
ltoes -8.03645
861
root 42.2694 17.331 0.573716 -37.4513 78.0228 -42.3889
lowerback 19.5559 1.13269 -0.503457
upperback 7.69185 1.77786 -1.46903
thorax -2.60933 1.0822 -1.65766
lowerneck 2.52343 2.76784 5.09867
upperneck -11.8195 4.436 1.29022
head -4.25364 2.00291 -0.665219
rclavicle -2.38542e-015 4.77083e-015
rhumerus -44.3193 3.09328 -79.9065
rradius 49.5481
rwrist 5.46428
rhand -7.6276 -17.4427
rfingers 7.12502
rthumb 18.2671 -46.6049
lclavicle -2.38542e-015 4.77083e-015
lhumerus -37.1887 -6.6305 70.4521
lradius 70.062
lwrist 3.63138
lhand -7.37168 4.43345
lfingers 7.12502
lthumb 18.5133 33.5725
rfemur -0.325171 16.9232 25.4582
rtibia 16.4094
rfoot -19.0202 6.9755
rtoes 3.20371
lfemur -27.6885 1.15887 -6.34337
ltibia 40.2559
lfoot -19.3643 -8.10925
ltoes -7.96965
862
root 42.2829 17.3304 0.568046 -37.2966 78.0006 -42.3123
lowerback 19.5758 1.12517 -0.521522
upperback 7.70449 1.76624 -1.44836
thorax -2.60752 1.07614 -1.62341
lowerneck 2.55954 2.76252 4.99738
upperneck -11.8889 4.43387 1.33998
head -4.28923 2.0023 -0.632754
rclavicle -4.77083e-015 6.04305e-014
rhumerus -44.3183 3.00566 -79.6256
rradius 49.5884
rwrist 5.3564
rhand -7.97283 -17.493
rfingers 7.12502
rthumb 17.935 -46.686
lclavicle -4.77083e-015 6.04305e-014
lhumerus -37.2743 -6.82974 70.6
lradius 69.9119
lwrist 3.64217
lhand -7.14662 4.45972
lfingers 7.12502
lthumb 18.7298 33.578
rfemur -0.22453 17.0339 25.4055
rtibia 16.1525
rfoot -18.9297 7.03326
rtoes 3.62908
lfemur -27.7667 1.26066 -6.38036
ltibia 40.3436
lfoot -19.4306 -8.15753
ltoes -7.90732
